<svg xmlns="http://www.w3.org/2000/svg" width="248" height="47" viewBox="0 0 248 47">
    <g fill="none" fill-rule="nonzero">
        <g fill="#3C3F76">
            <path d="M194.344 7.845h1.113l-1.04 4.845c-.97.325-1.903.506-2.836.506-1.184 0-2.118-.325-2.764-.976-.646-.65-1.005-1.59-1.005-2.748 0-1.229.216-2.35.682-3.326.467-1.012 1.077-1.771 1.903-2.35.825-.542 1.722-.831 2.691-.831.539 0 1.005.036 1.472.144.466.109.933.253 1.4.434l-.431 1.049c-.36-.145-.718-.29-1.113-.398a4.918 4.918 0 0 0-1.328-.18c-.753 0-1.471.216-2.081.686-.61.47-1.113 1.12-1.472 1.916-.359.832-.538 1.736-.538 2.784 0 .868.215 1.555.682 2.025.466.47 1.112.759 1.938.759.682 0 1.292-.072 1.758-.253l.97-4.086zM199.513 13.196c-.826 0-1.472-.253-1.938-.76-.467-.505-.718-1.192-.718-2.06 0-.868.18-1.663.502-2.458.323-.796.79-1.41 1.328-1.844a2.839 2.839 0 0 1 1.83-.65c.682 0 1.22.144 1.544.47.359.288.538.722.538 1.264 0 .832-.359 1.447-1.112 1.917-.754.47-1.83.687-3.23.687h-.216l-.036.542c0 .578.144 1.048.43 1.41.288.325.719.506 1.293.506.287 0 .574-.036.861-.108a5.694 5.694 0 0 0 1.113-.434v1.012c-.43.217-.79.325-1.113.434a9.48 9.48 0 0 1-1.076.072zm.933-6.76c-.467 0-.898.216-1.292.65-.395.434-.718 1.012-.933 1.772h.071c1.041 0 1.83-.145 2.37-.398.537-.253.825-.65.825-1.193a.796.796 0 0 0-.252-.615c-.18-.144-.43-.217-.79-.217zM207.696 13.052l1.004-4.7c.072-.434.108-.724.108-.904 0-.326-.072-.579-.215-.76-.144-.18-.395-.253-.718-.253-.395 0-.754.145-1.113.398a3.38 3.38 0 0 0-.933 1.157c-.287.506-.466 1.12-.646 1.844l-.682 3.254h-1.148l1.579-7.484h.933l-.143 1.374h.071c.395-.543.79-.94 1.185-1.157.395-.253.79-.362 1.22-.362.502 0 .897.145 1.184.434.287.29.431.723.503 1.23h.072c.394-.58.79-.977 1.22-1.266.43-.29.861-.398 1.328-.398.574 0 1.005.145 1.328.47.323.326.466.76.466 1.338 0 .325-.036.723-.143 1.23l-.97 4.59h-1.148l1.005-4.7c.108-.47.144-.795.144-1.012 0-.289-.072-.506-.252-.687-.143-.18-.394-.253-.717-.253-.36 0-.718.145-1.077.398s-.682.65-.933 1.12a6.502 6.502 0 0 0-.61 1.736l-.718 3.399h-1.184v-.036zM218.427 13.196c-.826 0-1.472-.253-1.938-.76-.467-.505-.718-1.192-.718-2.06 0-.868.18-1.663.502-2.458.323-.796.79-1.41 1.328-1.844a2.839 2.839 0 0 1 1.83-.65c.682 0 1.22.144 1.544.47.359.288.538.722.538 1.264 0 .832-.359 1.447-1.112 1.917-.754.47-1.83.687-3.23.687h-.216l-.036.542c0 .578.144 1.048.43 1.41.288.325.719.506 1.293.506.287 0 .574-.036.861-.108a5.694 5.694 0 0 0 1.113-.434v1.012c-.43.217-.79.325-1.113.434a9.48 9.48 0 0 1-1.076.072zm.933-6.76c-.467 0-.897.216-1.292.65-.395.434-.718 1.012-.933 1.772h.071c1.041 0 1.83-.145 2.37-.398.537-.253.825-.65.825-1.193a.796.796 0 0 0-.252-.615c-.18-.144-.43-.217-.79-.217zM225.246 13.196c-.826 0-1.472-.253-1.938-.76-.467-.505-.718-1.192-.718-2.06 0-.868.18-1.663.502-2.458.323-.796.79-1.41 1.328-1.844a2.839 2.839 0 0 1 1.83-.65c.683 0 1.22.144 1.544.47.359.288.538.722.538 1.264 0 .832-.359 1.447-1.112 1.917-.754.47-1.83.687-3.23.687h-.216l-.036.542c0 .578.144 1.048.431 1.41.287.325.718.506 1.292.506.287 0 .574-.036.861-.108a5.694 5.694 0 0 0 1.113-.434v1.012c-.43.217-.79.325-1.113.434a9.48 9.48 0 0 1-1.076.072zm.933-6.76c-.467 0-.897.216-1.292.65-.395.434-.718 1.012-.933 1.772h.071c1.041 0 1.83-.145 2.37-.398.538-.253.825-.65.825-1.193a.796.796 0 0 0-.252-.615c-.179-.144-.43-.217-.79-.217zM233.68 13.052l1.005-4.7c.072-.47.143-.796.143-.977 0-.289-.071-.506-.25-.687-.144-.18-.432-.253-.755-.253-.394 0-.79.145-1.184.398-.395.29-.718.65-1.005 1.157-.287.506-.502 1.12-.646 1.844l-.682 3.254h-1.148l1.579-7.484h.933l-.144 1.374h.072c.43-.543.862-.94 1.256-1.193a2.604 2.604 0 0 1 1.257-.326c.574 0 1.04.145 1.363.47.323.326.503.76.503 1.338a5.4 5.4 0 0 1-.144 1.23l-.969 4.59h-1.184v-.035zM239.422 12.256c.252 0 .575-.072.97-.18v.867c-.144.072-.36.109-.575.18-.215.037-.395.073-.538.073-.575 0-1.005-.144-1.292-.398-.287-.253-.467-.686-.467-1.193 0-.289.036-.65.108-1.012l.861-4.085h-1.148l.107-.506 1.256-.543.862-1.554h.646l-.359 1.699h1.866l-.18.868h-1.83l-.861 4.121c-.072.398-.108.687-.108.904 0 .253.072.434.18.578.072.145.251.181.502.181zM244.555 13.196c-.826 0-1.472-.253-1.939-.76-.466-.505-.717-1.192-.717-2.06 0-.868.18-1.663.502-2.458.323-.796.79-1.41 1.328-1.844a2.839 2.839 0 0 1 1.83-.65c.682 0 1.22.144 1.544.47.359.288.538.722.538 1.264 0 .832-.359 1.447-1.112 1.917-.754.47-1.83.687-3.23.687h-.216l-.036.542c0 .578.144 1.048.43 1.41.288.325.719.506 1.293.506.287 0 .574-.036.861-.108a5.694 5.694 0 0 0 1.113-.434v1.012c-.43.217-.79.325-1.113.434a9.48 9.48 0 0 1-1.076.072zm.933-6.76c-.467 0-.898.216-1.292.65-.395.434-.718 1.012-.933 1.772h.071c1.041 0 1.83-.145 2.369-.398.538-.253.826-.65.826-1.193a.796.796 0 0 0-.252-.615c-.18-.144-.43-.217-.79-.217z"/>
        </g>
        <g fill="#3C3F76">
            <path d="M111.474 39.48l5.922-28.308h4.558l-5.096 24.331h10.372l-.825 3.977zM150.38 26.103c0 2.603-.467 4.99-1.4 7.122-.934 2.133-2.226 3.76-3.84 4.917-1.652 1.157-3.518 1.7-5.636 1.7-2.476 0-4.414-.724-5.85-2.206-1.435-1.482-2.189-3.47-2.189-6.038 0-2.566.467-4.916 1.364-7.05.933-2.133 2.19-3.796 3.84-4.989 1.651-1.193 3.553-1.807 5.743-1.807 2.512 0 4.45.759 5.85 2.241 1.4 1.482 2.117 3.543 2.117 6.11zm-4.559-.18c0-1.375-.323-2.46-.933-3.255-.61-.795-1.507-1.156-2.692-1.156-1.184 0-2.26.47-3.194 1.373-.933.94-1.687 2.17-2.19 3.76a16.601 16.601 0 0 0-.789 5.062c0 1.446.323 2.53.933 3.29.646.76 1.58 1.157 2.8 1.157 1.148 0 2.189-.434 3.122-1.302.933-.867 1.651-2.097 2.154-3.687.538-1.627.79-3.363.79-5.243zM161.936 39.878c-2.513 0-4.45-.687-5.85-2.061-1.4-1.374-2.082-3.326-2.082-5.857 0-2.675.467-5.098 1.4-7.303.933-2.205 2.26-3.905 3.984-5.134 1.686-1.23 3.624-1.844 5.814-1.844 2.117 0 4.02.398 5.706 1.193l-1.328 3.543c-1.579-.687-2.979-1.012-4.235-1.012-1.938 0-3.517.976-4.809 2.965-1.292 1.988-1.938 4.447-1.938 7.339 0 1.446.359 2.53 1.077 3.326.717.76 1.722 1.157 2.979 1.157.933 0 1.83-.145 2.655-.434.826-.29 1.651-.614 2.477-1.048v3.76c-1.795.94-3.733 1.41-5.85 1.41zM184.008 39.48l2.728-13.015c.215-1.157.359-1.989.359-2.459 0-1.735-.826-2.603-2.477-2.603-1.435 0-2.763.795-4.02 2.422-1.256 1.627-2.153 3.833-2.727 6.617l-1.866 9.038h-4.523l6.353-30.116h4.522l-1.112 5.061a143.005 143.005 0 0 1-1.4 5.677l-.359 1.446h.144c1.076-1.374 2.153-2.35 3.23-2.965a6.787 6.787 0 0 1 3.41-.904c1.758 0 3.086.506 4.019 1.483.933 1.012 1.4 2.422 1.4 4.302 0 .976-.144 2.097-.431 3.362l-2.656 12.654h-4.594zM203.568 39.878c-2.512 0-4.486-.723-5.922-2.133-1.4-1.447-2.117-3.435-2.117-6.002 0-2.567.502-4.917 1.471-7.122 1.005-2.206 2.333-3.905 4.02-5.098 1.687-1.193 3.589-1.808 5.706-1.808 2.046 0 3.661.47 4.81 1.41 1.148.94 1.722 2.278 1.722 3.977 0 2.35-1.076 4.194-3.194 5.496-2.117 1.337-5.168 1.988-9.116 1.988h-.825l-.036.615v.578c0 1.446.359 2.567 1.077 3.363.717.795 1.794 1.229 3.23 1.229.933 0 1.83-.109 2.763-.362.897-.253 1.974-.65 3.23-1.265v3.615c-1.22.579-2.368.976-3.373 1.193-1.005.217-2.154.326-3.446.326zm2.943-18.692c-1.22 0-2.369.542-3.481 1.663-1.077 1.121-1.866 2.567-2.333 4.411h.574c2.405 0 4.307-.362 5.635-1.048 1.364-.687 2.046-1.664 2.046-2.929 0-.65-.216-1.157-.61-1.555-.431-.361-1.041-.542-1.83-.542zM229.911 17.715c2.836 0 4.45 1.519 4.881 4.556h.144c.97-1.483 2.046-2.64 3.266-3.399 1.22-.759 2.476-1.157 3.804-1.157 1.687 0 3.015.507 3.876 1.483.898.976 1.328 2.386 1.328 4.157 0 .832-.143 1.989-.43 3.507l-2.692 12.654h-4.522l2.763-13.015c.252-1.23.36-2.097.36-2.567 0-1.663-.79-2.495-2.334-2.495-1.4 0-2.691.796-3.876 2.386-1.184 1.591-2.081 3.724-2.62 6.363l-1.938 9.292H227.4l2.764-13.015c.215-1.049.323-1.88.323-2.459 0-1.735-.754-2.603-2.261-2.603-1.4 0-2.728.832-3.912 2.459-1.185 1.626-2.082 3.832-2.656 6.543l-1.867 9.075h-4.522l4.522-21.403h3.518l-.395 3.977h.18c1.937-2.892 4.198-4.339 6.818-4.339z"/>
        </g>
        <path fill="#3C3F76" d="M47.95 6.363c-9.978-7.375-28.892-1.771-28.892-1.771C10.013 7.592 3.194 12.003 0 17.1c.682-.398 15.9-9.22 30.004-9.039 14.428.181.323 6.797-5.527 9.039-5.814 2.241-21.857 7.194-17.98 19.704 7.213 5.025 18.41 8.64 31.475 9.906-41.417-25.778 25.446-28.887 9.977-40.348z"/>
        <path fill="#8B97BA" d="M70.273 2.748c-.431-.109-.862-.181-1.292-.29 7.537 4.447 8.72 7.014 6.855 8.424-2.764 2.097-9.655-1.844-15.648-7.194-2.764-2.459-7.86-3.29-12.526-3.435-3.517 0-6.927.18-10.229.506 7.609.579 15.218 2.35 18.555 6.833 7.717 10.413 26.487 12.546 30.004 6.978 3.446-5.46-15.181-11.642-15.72-11.822z"/>
        <path fill="#A6C22B" d="M56.993 29.285c.467-8.46 26.559 0 36.823-4.664 6.21-2.82 1.185-8.93-.466-10.702-.18-.18-.323-.325-.467-.506-.502 18.547-68.047-9.906-55.665 20.174 7.752 18.836 40.304 9.038 40.95 8.821 5.312-1.88 9.798-4.302 13.172-7.013-14.5.144-34.67-.651-34.347-6.11z"/>
    </g>
</svg>
